<mxfile host="app.diagrams.net" modified="2021-07-09T09:43:49.020Z" agent="5.0 (Macintosh; Intel Mac OS X 10_15_7) AppleWebKit/537.36 (KHTML, like Gecko) Chrome/90.0.4430.212 Safari/537.36 Edg/90.0.818.62" etag="3k3Zg55IOlFdoEY7xs6D" version="14.8.3" type="github">
  <diagram id="Ui_IJGeLM7nAl5RhDxTD" name="第 1 页">
    <mxGraphModel dx="950" dy="477" grid="0" gridSize="10" guides="1" tooltips="1" connect="1" arrows="1" fold="1" page="1" pageScale="1" pageWidth="1200" pageHeight="1920" math="1" shadow="0">
      <root>
        <mxCell id="0" />
        <mxCell id="1" parent="0" />
        <mxCell id="G_TEXTWYbM2PwAT1ihFF-1" value="" style="shape=table;html=1;whiteSpace=wrap;startSize=0;container=1;collapsible=0;childLayout=tableLayout;" vertex="1" parent="1">
          <mxGeometry x="509" y="295" width="40" height="150" as="geometry" />
        </mxCell>
        <mxCell id="G_TEXTWYbM2PwAT1ihFF-2" value="" style="shape=partialRectangle;html=1;whiteSpace=wrap;collapsible=0;dropTarget=0;pointerEvents=0;fillColor=none;top=0;left=0;bottom=0;right=0;points=[[0,0.5],[1,0.5]];portConstraint=eastwest;" vertex="1" parent="G_TEXTWYbM2PwAT1ihFF-1">
          <mxGeometry width="40" height="25" as="geometry" />
        </mxCell>
        <mxCell id="G_TEXTWYbM2PwAT1ihFF-3" value="1" style="shape=partialRectangle;html=1;whiteSpace=wrap;connectable=0;fillColor=none;top=0;left=0;bottom=0;right=0;overflow=hidden;" vertex="1" parent="G_TEXTWYbM2PwAT1ihFF-2">
          <mxGeometry width="40" height="25" as="geometry" />
        </mxCell>
        <mxCell id="G_TEXTWYbM2PwAT1ihFF-6" value="" style="shape=partialRectangle;html=1;whiteSpace=wrap;collapsible=0;dropTarget=0;pointerEvents=0;fillColor=none;top=0;left=0;bottom=0;right=0;points=[[0,0.5],[1,0.5]];portConstraint=eastwest;" vertex="1" parent="G_TEXTWYbM2PwAT1ihFF-1">
          <mxGeometry y="25" width="40" height="25" as="geometry" />
        </mxCell>
        <mxCell id="G_TEXTWYbM2PwAT1ihFF-7" value="2" style="shape=partialRectangle;html=1;whiteSpace=wrap;connectable=0;fillColor=none;top=0;left=0;bottom=0;right=0;overflow=hidden;" vertex="1" parent="G_TEXTWYbM2PwAT1ihFF-6">
          <mxGeometry width="40" height="25" as="geometry" />
        </mxCell>
        <mxCell id="G_TEXTWYbM2PwAT1ihFF-10" value="" style="shape=partialRectangle;html=1;whiteSpace=wrap;collapsible=0;dropTarget=0;pointerEvents=0;fillColor=none;top=0;left=0;bottom=0;right=0;points=[[0,0.5],[1,0.5]];portConstraint=eastwest;" vertex="1" parent="G_TEXTWYbM2PwAT1ihFF-1">
          <mxGeometry y="50" width="40" height="25" as="geometry" />
        </mxCell>
        <mxCell id="G_TEXTWYbM2PwAT1ihFF-11" value="3" style="shape=partialRectangle;html=1;whiteSpace=wrap;connectable=0;fillColor=none;top=0;left=0;bottom=0;right=0;overflow=hidden;" vertex="1" parent="G_TEXTWYbM2PwAT1ihFF-10">
          <mxGeometry width="40" height="25" as="geometry" />
        </mxCell>
        <mxCell id="G_TEXTWYbM2PwAT1ihFF-16" style="shape=partialRectangle;html=1;whiteSpace=wrap;collapsible=0;dropTarget=0;pointerEvents=0;fillColor=none;top=0;left=0;bottom=0;right=0;points=[[0,0.5],[1,0.5]];portConstraint=eastwest;" vertex="1" parent="G_TEXTWYbM2PwAT1ihFF-1">
          <mxGeometry y="75" width="40" height="25" as="geometry" />
        </mxCell>
        <mxCell id="G_TEXTWYbM2PwAT1ihFF-17" value="4" style="shape=partialRectangle;html=1;whiteSpace=wrap;connectable=0;fillColor=none;top=0;left=0;bottom=0;right=0;overflow=hidden;" vertex="1" parent="G_TEXTWYbM2PwAT1ihFF-16">
          <mxGeometry width="40" height="25" as="geometry" />
        </mxCell>
        <mxCell id="G_TEXTWYbM2PwAT1ihFF-14" style="shape=partialRectangle;html=1;whiteSpace=wrap;collapsible=0;dropTarget=0;pointerEvents=0;fillColor=none;top=0;left=0;bottom=0;right=0;points=[[0,0.5],[1,0.5]];portConstraint=eastwest;" vertex="1" parent="G_TEXTWYbM2PwAT1ihFF-1">
          <mxGeometry y="100" width="40" height="25" as="geometry" />
        </mxCell>
        <mxCell id="G_TEXTWYbM2PwAT1ihFF-15" value="5" style="shape=partialRectangle;html=1;whiteSpace=wrap;connectable=0;fillColor=none;top=0;left=0;bottom=0;right=0;overflow=hidden;" vertex="1" parent="G_TEXTWYbM2PwAT1ihFF-14">
          <mxGeometry width="40" height="25" as="geometry" />
        </mxCell>
        <mxCell id="G_TEXTWYbM2PwAT1ihFF-18" style="shape=partialRectangle;html=1;whiteSpace=wrap;collapsible=0;dropTarget=0;pointerEvents=0;fillColor=none;top=0;left=0;bottom=0;right=0;points=[[0,0.5],[1,0.5]];portConstraint=eastwest;" vertex="1" parent="G_TEXTWYbM2PwAT1ihFF-1">
          <mxGeometry y="125" width="40" height="25" as="geometry" />
        </mxCell>
        <mxCell id="G_TEXTWYbM2PwAT1ihFF-19" value="..." style="shape=partialRectangle;html=1;whiteSpace=wrap;connectable=0;fillColor=none;top=0;left=0;bottom=0;right=0;overflow=hidden;" vertex="1" parent="G_TEXTWYbM2PwAT1ihFF-18">
          <mxGeometry width="40" height="25" as="geometry" />
        </mxCell>
        <mxCell id="G_TEXTWYbM2PwAT1ihFF-20" value="head" style="text;html=1;strokeColor=none;fillColor=none;align=center;verticalAlign=middle;whiteSpace=wrap;rounded=0;" vertex="1" parent="1">
          <mxGeometry x="509" y="270" width="40" height="20" as="geometry" />
        </mxCell>
        <mxCell id="G_TEXTWYbM2PwAT1ihFF-21" style="edgeStyle=orthogonalEdgeStyle;rounded=0;orthogonalLoop=1;jettySize=auto;html=1;exitX=1;exitY=0.5;exitDx=0;exitDy=0;" edge="1" parent="1" source="G_TEXTWYbM2PwAT1ihFF-2" target="G_TEXTWYbM2PwAT1ihFF-22">
          <mxGeometry relative="1" as="geometry">
            <mxPoint x="578.1428571428571" y="308.42857142857144" as="targetPoint" />
          </mxGeometry>
        </mxCell>
        <mxCell id="G_TEXTWYbM2PwAT1ihFF-23" style="edgeStyle=orthogonalEdgeStyle;rounded=0;orthogonalLoop=1;jettySize=auto;html=1;exitX=1;exitY=0.5;exitDx=0;exitDy=0;" edge="1" parent="1" source="G_TEXTWYbM2PwAT1ihFF-22">
          <mxGeometry relative="1" as="geometry">
            <mxPoint x="652" y="307" as="targetPoint" />
          </mxGeometry>
        </mxCell>
        <mxCell id="G_TEXTWYbM2PwAT1ihFF-22" value="$$v_1$$" style="rounded=0;whiteSpace=wrap;html=1;" vertex="1" parent="1">
          <mxGeometry x="585" y="297.5" width="30" height="20" as="geometry" />
        </mxCell>
        <mxCell id="G_TEXTWYbM2PwAT1ihFF-24" style="edgeStyle=orthogonalEdgeStyle;rounded=0;orthogonalLoop=1;jettySize=auto;html=1;exitX=1;exitY=0.5;exitDx=0;exitDy=0;" edge="1" parent="1" source="G_TEXTWYbM2PwAT1ihFF-6" target="G_TEXTWYbM2PwAT1ihFF-26">
          <mxGeometry relative="1" as="geometry">
            <mxPoint x="583.8571428571429" y="332.42857142857144" as="targetPoint" />
          </mxGeometry>
        </mxCell>
        <mxCell id="G_TEXTWYbM2PwAT1ihFF-28" style="edgeStyle=orthogonalEdgeStyle;rounded=0;orthogonalLoop=1;jettySize=auto;html=1;" edge="1" parent="1" source="G_TEXTWYbM2PwAT1ihFF-26" target="G_TEXTWYbM2PwAT1ihFF-29">
          <mxGeometry relative="1" as="geometry">
            <mxPoint x="656.4285714285713" y="332.5" as="targetPoint" />
          </mxGeometry>
        </mxCell>
        <mxCell id="G_TEXTWYbM2PwAT1ihFF-26" value="$$v_3$$" style="rounded=0;whiteSpace=wrap;html=1;" vertex="1" parent="1">
          <mxGeometry x="585" y="322.5" width="30" height="20" as="geometry" />
        </mxCell>
        <mxCell id="G_TEXTWYbM2PwAT1ihFF-29" value="$$v_2$$" style="rounded=0;whiteSpace=wrap;html=1;" vertex="1" parent="1">
          <mxGeometry x="651" y="322.5" width="30" height="20" as="geometry" />
        </mxCell>
        <mxCell id="G_TEXTWYbM2PwAT1ihFF-32" style="edgeStyle=orthogonalEdgeStyle;rounded=0;orthogonalLoop=1;jettySize=auto;html=1;" edge="1" parent="1" target="G_TEXTWYbM2PwAT1ihFF-33" source="G_TEXTWYbM2PwAT1ihFF-10">
          <mxGeometry relative="1" as="geometry">
            <mxPoint x="583.8571428571429" y="357.92857142857144" as="targetPoint" />
            <mxPoint x="549" y="358" as="sourcePoint" />
          </mxGeometry>
        </mxCell>
        <mxCell id="G_TEXTWYbM2PwAT1ihFF-34" style="edgeStyle=orthogonalEdgeStyle;rounded=0;orthogonalLoop=1;jettySize=auto;html=1;exitX=1;exitY=0.5;exitDx=0;exitDy=0;" edge="1" parent="1" source="G_TEXTWYbM2PwAT1ihFF-33">
          <mxGeometry relative="1" as="geometry">
            <mxPoint x="650.7142857142858" y="358.1428571428571" as="targetPoint" />
          </mxGeometry>
        </mxCell>
        <mxCell id="G_TEXTWYbM2PwAT1ihFF-33" value="$$v_5$$" style="rounded=0;whiteSpace=wrap;html=1;" vertex="1" parent="1">
          <mxGeometry x="585" y="348" width="30" height="20" as="geometry" />
        </mxCell>
        <mxCell id="G_TEXTWYbM2PwAT1ihFF-35" style="edgeStyle=orthogonalEdgeStyle;rounded=0;orthogonalLoop=1;jettySize=auto;html=1;exitX=1;exitY=0.5;exitDx=0;exitDy=0;" edge="1" parent="1" source="G_TEXTWYbM2PwAT1ihFF-16">
          <mxGeometry relative="1" as="geometry">
            <mxPoint x="584.4285714285713" y="382.71428571428567" as="targetPoint" />
          </mxGeometry>
        </mxCell>
        <mxCell id="G_TEXTWYbM2PwAT1ihFF-36" style="edgeStyle=orthogonalEdgeStyle;rounded=0;orthogonalLoop=1;jettySize=auto;html=1;" edge="1" parent="1" source="G_TEXTWYbM2PwAT1ihFF-14" target="G_TEXTWYbM2PwAT1ihFF-37">
          <mxGeometry relative="1" as="geometry">
            <mxPoint x="584.4285714285713" y="407.5" as="targetPoint" />
          </mxGeometry>
        </mxCell>
        <mxCell id="G_TEXTWYbM2PwAT1ihFF-37" value="$$v_6$$" style="rounded=0;whiteSpace=wrap;html=1;" vertex="1" parent="1">
          <mxGeometry x="585" y="397.5" width="30" height="20" as="geometry" />
        </mxCell>
        <mxCell id="G_TEXTWYbM2PwAT1ihFF-39" style="edgeStyle=orthogonalEdgeStyle;rounded=0;orthogonalLoop=1;jettySize=auto;html=1;" edge="1" parent="1" target="G_TEXTWYbM2PwAT1ihFF-40">
          <mxGeometry relative="1" as="geometry">
            <mxPoint x="656.4285714285713" y="407.5" as="targetPoint" />
            <mxPoint x="615" y="407.48571428571427" as="sourcePoint" />
          </mxGeometry>
        </mxCell>
        <mxCell id="G_TEXTWYbM2PwAT1ihFF-40" value="$$v_4$$" style="rounded=0;whiteSpace=wrap;html=1;" vertex="1" parent="1">
          <mxGeometry x="651" y="397.5" width="30" height="20" as="geometry" />
        </mxCell>
        <mxCell id="G_TEXTWYbM2PwAT1ihFF-41" value="" style="shape=table;html=1;whiteSpace=wrap;startSize=0;container=1;collapsible=0;childLayout=tableLayout;" vertex="1" parent="1">
          <mxGeometry x="787" y="295.5" width="40" height="150" as="geometry" />
        </mxCell>
        <mxCell id="G_TEXTWYbM2PwAT1ihFF-42" value="" style="shape=partialRectangle;html=1;whiteSpace=wrap;collapsible=0;dropTarget=0;pointerEvents=0;fillColor=none;top=0;left=0;bottom=0;right=0;points=[[0,0.5],[1,0.5]];portConstraint=eastwest;" vertex="1" parent="G_TEXTWYbM2PwAT1ihFF-41">
          <mxGeometry width="40" height="25" as="geometry" />
        </mxCell>
        <mxCell id="G_TEXTWYbM2PwAT1ihFF-43" value="1" style="shape=partialRectangle;html=1;whiteSpace=wrap;connectable=0;fillColor=none;top=0;left=0;bottom=0;right=0;overflow=hidden;" vertex="1" parent="G_TEXTWYbM2PwAT1ihFF-42">
          <mxGeometry width="40" height="25" as="geometry" />
        </mxCell>
        <mxCell id="G_TEXTWYbM2PwAT1ihFF-44" value="" style="shape=partialRectangle;html=1;whiteSpace=wrap;collapsible=0;dropTarget=0;pointerEvents=0;fillColor=none;top=0;left=0;bottom=0;right=0;points=[[0,0.5],[1,0.5]];portConstraint=eastwest;" vertex="1" parent="G_TEXTWYbM2PwAT1ihFF-41">
          <mxGeometry y="25" width="40" height="25" as="geometry" />
        </mxCell>
        <mxCell id="G_TEXTWYbM2PwAT1ihFF-45" value="2" style="shape=partialRectangle;html=1;whiteSpace=wrap;connectable=0;fillColor=none;top=0;left=0;bottom=0;right=0;overflow=hidden;" vertex="1" parent="G_TEXTWYbM2PwAT1ihFF-44">
          <mxGeometry width="40" height="25" as="geometry" />
        </mxCell>
        <mxCell id="G_TEXTWYbM2PwAT1ihFF-46" value="" style="shape=partialRectangle;html=1;whiteSpace=wrap;collapsible=0;dropTarget=0;pointerEvents=0;fillColor=none;top=0;left=0;bottom=0;right=0;points=[[0,0.5],[1,0.5]];portConstraint=eastwest;" vertex="1" parent="G_TEXTWYbM2PwAT1ihFF-41">
          <mxGeometry y="50" width="40" height="25" as="geometry" />
        </mxCell>
        <mxCell id="G_TEXTWYbM2PwAT1ihFF-47" value="3" style="shape=partialRectangle;html=1;whiteSpace=wrap;connectable=0;fillColor=none;top=0;left=0;bottom=0;right=0;overflow=hidden;" vertex="1" parent="G_TEXTWYbM2PwAT1ihFF-46">
          <mxGeometry width="40" height="25" as="geometry" />
        </mxCell>
        <mxCell id="G_TEXTWYbM2PwAT1ihFF-48" style="shape=partialRectangle;html=1;whiteSpace=wrap;collapsible=0;dropTarget=0;pointerEvents=0;fillColor=none;top=0;left=0;bottom=0;right=0;points=[[0,0.5],[1,0.5]];portConstraint=eastwest;" vertex="1" parent="G_TEXTWYbM2PwAT1ihFF-41">
          <mxGeometry y="75" width="40" height="25" as="geometry" />
        </mxCell>
        <mxCell id="G_TEXTWYbM2PwAT1ihFF-49" value="4" style="shape=partialRectangle;html=1;whiteSpace=wrap;connectable=0;fillColor=none;top=0;left=0;bottom=0;right=0;overflow=hidden;" vertex="1" parent="G_TEXTWYbM2PwAT1ihFF-48">
          <mxGeometry width="40" height="25" as="geometry" />
        </mxCell>
        <mxCell id="G_TEXTWYbM2PwAT1ihFF-50" style="shape=partialRectangle;html=1;whiteSpace=wrap;collapsible=0;dropTarget=0;pointerEvents=0;fillColor=none;top=0;left=0;bottom=0;right=0;points=[[0,0.5],[1,0.5]];portConstraint=eastwest;" vertex="1" parent="G_TEXTWYbM2PwAT1ihFF-41">
          <mxGeometry y="100" width="40" height="25" as="geometry" />
        </mxCell>
        <mxCell id="G_TEXTWYbM2PwAT1ihFF-51" value="5" style="shape=partialRectangle;html=1;whiteSpace=wrap;connectable=0;fillColor=none;top=0;left=0;bottom=0;right=0;overflow=hidden;" vertex="1" parent="G_TEXTWYbM2PwAT1ihFF-50">
          <mxGeometry width="40" height="25" as="geometry" />
        </mxCell>
        <mxCell id="G_TEXTWYbM2PwAT1ihFF-52" style="shape=partialRectangle;html=1;whiteSpace=wrap;collapsible=0;dropTarget=0;pointerEvents=0;fillColor=none;top=0;left=0;bottom=0;right=0;points=[[0,0.5],[1,0.5]];portConstraint=eastwest;" vertex="1" parent="G_TEXTWYbM2PwAT1ihFF-41">
          <mxGeometry y="125" width="40" height="25" as="geometry" />
        </mxCell>
        <mxCell id="G_TEXTWYbM2PwAT1ihFF-53" value="..." style="shape=partialRectangle;html=1;whiteSpace=wrap;connectable=0;fillColor=none;top=0;left=0;bottom=0;right=0;overflow=hidden;" vertex="1" parent="G_TEXTWYbM2PwAT1ihFF-52">
          <mxGeometry width="40" height="25" as="geometry" />
        </mxCell>
        <mxCell id="G_TEXTWYbM2PwAT1ihFF-54" value="head" style="text;html=1;strokeColor=none;fillColor=none;align=center;verticalAlign=middle;whiteSpace=wrap;rounded=0;" vertex="1" parent="1">
          <mxGeometry x="787" y="270.5" width="40" height="20" as="geometry" />
        </mxCell>
        <mxCell id="G_TEXTWYbM2PwAT1ihFF-55" style="edgeStyle=orthogonalEdgeStyle;rounded=0;orthogonalLoop=1;jettySize=auto;html=1;exitX=1;exitY=0.5;exitDx=0;exitDy=0;" edge="1" parent="1" source="G_TEXTWYbM2PwAT1ihFF-42" target="G_TEXTWYbM2PwAT1ihFF-57">
          <mxGeometry relative="1" as="geometry">
            <mxPoint x="856.1428571428571" y="308.92857142857144" as="targetPoint" />
          </mxGeometry>
        </mxCell>
        <mxCell id="G_TEXTWYbM2PwAT1ihFF-56" style="edgeStyle=orthogonalEdgeStyle;rounded=0;orthogonalLoop=1;jettySize=auto;html=1;exitX=1;exitY=0.5;exitDx=0;exitDy=0;" edge="1" parent="1" source="G_TEXTWYbM2PwAT1ihFF-57">
          <mxGeometry relative="1" as="geometry">
            <mxPoint x="930" y="307.5" as="targetPoint" />
          </mxGeometry>
        </mxCell>
        <mxCell id="G_TEXTWYbM2PwAT1ihFF-57" value="$$v_1$$" style="rounded=0;whiteSpace=wrap;html=1;" vertex="1" parent="1">
          <mxGeometry x="863" y="298" width="30" height="20" as="geometry" />
        </mxCell>
        <mxCell id="G_TEXTWYbM2PwAT1ihFF-58" style="edgeStyle=orthogonalEdgeStyle;rounded=0;orthogonalLoop=1;jettySize=auto;html=1;exitX=1;exitY=0.5;exitDx=0;exitDy=0;" edge="1" parent="1" source="G_TEXTWYbM2PwAT1ihFF-44" target="G_TEXTWYbM2PwAT1ihFF-60">
          <mxGeometry relative="1" as="geometry">
            <mxPoint x="861.8571428571429" y="332.92857142857144" as="targetPoint" />
          </mxGeometry>
        </mxCell>
        <mxCell id="G_TEXTWYbM2PwAT1ihFF-59" style="edgeStyle=orthogonalEdgeStyle;rounded=0;orthogonalLoop=1;jettySize=auto;html=1;" edge="1" parent="1" source="G_TEXTWYbM2PwAT1ihFF-60" target="G_TEXTWYbM2PwAT1ihFF-61">
          <mxGeometry relative="1" as="geometry">
            <mxPoint x="934.4285714285713" y="333" as="targetPoint" />
          </mxGeometry>
        </mxCell>
        <mxCell id="G_TEXTWYbM2PwAT1ihFF-60" value="$$v_3$$" style="rounded=0;whiteSpace=wrap;html=1;" vertex="1" parent="1">
          <mxGeometry x="863" y="323" width="30" height="20" as="geometry" />
        </mxCell>
        <mxCell id="G_TEXTWYbM2PwAT1ihFF-61" value="$$v_2$$" style="rounded=0;whiteSpace=wrap;html=1;" vertex="1" parent="1">
          <mxGeometry x="929" y="323" width="30" height="20" as="geometry" />
        </mxCell>
        <mxCell id="G_TEXTWYbM2PwAT1ihFF-62" style="edgeStyle=orthogonalEdgeStyle;rounded=0;orthogonalLoop=1;jettySize=auto;html=1;" edge="1" parent="1" source="G_TEXTWYbM2PwAT1ihFF-46" target="G_TEXTWYbM2PwAT1ihFF-64">
          <mxGeometry relative="1" as="geometry">
            <mxPoint x="861.8571428571429" y="358.42857142857144" as="targetPoint" />
            <mxPoint x="827" y="358.5" as="sourcePoint" />
          </mxGeometry>
        </mxCell>
        <mxCell id="G_TEXTWYbM2PwAT1ihFF-63" style="edgeStyle=orthogonalEdgeStyle;rounded=0;orthogonalLoop=1;jettySize=auto;html=1;exitX=1;exitY=0.5;exitDx=0;exitDy=0;" edge="1" parent="1" source="G_TEXTWYbM2PwAT1ihFF-64">
          <mxGeometry relative="1" as="geometry">
            <mxPoint x="928.7142857142858" y="358.6428571428571" as="targetPoint" />
          </mxGeometry>
        </mxCell>
        <mxCell id="G_TEXTWYbM2PwAT1ihFF-64" value="$$v_5$$" style="rounded=0;whiteSpace=wrap;html=1;" vertex="1" parent="1">
          <mxGeometry x="863" y="348.5" width="30" height="20" as="geometry" />
        </mxCell>
        <mxCell id="G_TEXTWYbM2PwAT1ihFF-65" style="edgeStyle=orthogonalEdgeStyle;rounded=0;orthogonalLoop=1;jettySize=auto;html=1;exitX=1;exitY=0.5;exitDx=0;exitDy=0;" edge="1" parent="1" source="G_TEXTWYbM2PwAT1ihFF-48">
          <mxGeometry relative="1" as="geometry">
            <mxPoint x="862.4285714285713" y="383.21428571428567" as="targetPoint" />
          </mxGeometry>
        </mxCell>
        <mxCell id="G_TEXTWYbM2PwAT1ihFF-67" value="$$v_6$$" style="rounded=0;whiteSpace=wrap;html=1;" vertex="1" parent="1">
          <mxGeometry x="929" y="398" width="30" height="20" as="geometry" />
        </mxCell>
        <mxCell id="G_TEXTWYbM2PwAT1ihFF-68" style="edgeStyle=orthogonalEdgeStyle;rounded=0;orthogonalLoop=1;jettySize=auto;html=1;" edge="1" parent="1" target="G_TEXTWYbM2PwAT1ihFF-69">
          <mxGeometry relative="1" as="geometry">
            <mxPoint x="1000.4285714285713" y="408" as="targetPoint" />
            <mxPoint x="959" y="407.9857142857144" as="sourcePoint" />
          </mxGeometry>
        </mxCell>
        <mxCell id="G_TEXTWYbM2PwAT1ihFF-69" value="$$v_4$$" style="rounded=0;whiteSpace=wrap;html=1;" vertex="1" parent="1">
          <mxGeometry x="995" y="398" width="30" height="20" as="geometry" />
        </mxCell>
        <mxCell id="G_TEXTWYbM2PwAT1ihFF-72" style="edgeStyle=orthogonalEdgeStyle;rounded=0;orthogonalLoop=1;jettySize=auto;html=1;" edge="1" parent="1" target="G_TEXTWYbM2PwAT1ihFF-74">
          <mxGeometry relative="1" as="geometry">
            <mxPoint x="861.8571428571429" y="407.92857142857144" as="targetPoint" />
            <mxPoint x="827.0000000000002" y="407.5344827586207" as="sourcePoint" />
          </mxGeometry>
        </mxCell>
        <mxCell id="G_TEXTWYbM2PwAT1ihFF-73" style="edgeStyle=orthogonalEdgeStyle;rounded=0;orthogonalLoop=1;jettySize=auto;html=1;exitX=1;exitY=0.5;exitDx=0;exitDy=0;" edge="1" parent="1" source="G_TEXTWYbM2PwAT1ihFF-74" target="G_TEXTWYbM2PwAT1ihFF-67">
          <mxGeometry relative="1" as="geometry">
            <mxPoint x="929" y="408" as="targetPoint" />
          </mxGeometry>
        </mxCell>
        <mxCell id="G_TEXTWYbM2PwAT1ihFF-74" value="$$v_7$$" style="rounded=0;whiteSpace=wrap;html=1;fillColor=#99CCFF;" vertex="1" parent="1">
          <mxGeometry x="863" y="398" width="30" height="20" as="geometry" />
        </mxCell>
        <mxCell id="G_TEXTWYbM2PwAT1ihFF-75" value="" style="shape=table;html=1;whiteSpace=wrap;startSize=0;container=1;collapsible=0;childLayout=tableLayout;" vertex="1" parent="1">
          <mxGeometry x="278" y="543" width="40" height="150" as="geometry" />
        </mxCell>
        <mxCell id="G_TEXTWYbM2PwAT1ihFF-76" value="" style="shape=partialRectangle;html=1;whiteSpace=wrap;collapsible=0;dropTarget=0;pointerEvents=0;fillColor=none;top=0;left=0;bottom=0;right=0;points=[[0,0.5],[1,0.5]];portConstraint=eastwest;" vertex="1" parent="G_TEXTWYbM2PwAT1ihFF-75">
          <mxGeometry width="40" height="25" as="geometry" />
        </mxCell>
        <mxCell id="G_TEXTWYbM2PwAT1ihFF-77" value="1" style="shape=partialRectangle;html=1;whiteSpace=wrap;connectable=0;fillColor=none;top=0;left=0;bottom=0;right=0;overflow=hidden;" vertex="1" parent="G_TEXTWYbM2PwAT1ihFF-76">
          <mxGeometry width="40" height="25" as="geometry" />
        </mxCell>
        <mxCell id="G_TEXTWYbM2PwAT1ihFF-78" value="" style="shape=partialRectangle;html=1;whiteSpace=wrap;collapsible=0;dropTarget=0;pointerEvents=0;fillColor=none;top=0;left=0;bottom=0;right=0;points=[[0,0.5],[1,0.5]];portConstraint=eastwest;" vertex="1" parent="G_TEXTWYbM2PwAT1ihFF-75">
          <mxGeometry y="25" width="40" height="25" as="geometry" />
        </mxCell>
        <mxCell id="G_TEXTWYbM2PwAT1ihFF-79" value="2" style="shape=partialRectangle;html=1;whiteSpace=wrap;connectable=0;fillColor=none;top=0;left=0;bottom=0;right=0;overflow=hidden;" vertex="1" parent="G_TEXTWYbM2PwAT1ihFF-78">
          <mxGeometry width="40" height="25" as="geometry" />
        </mxCell>
        <mxCell id="G_TEXTWYbM2PwAT1ihFF-80" value="" style="shape=partialRectangle;html=1;whiteSpace=wrap;collapsible=0;dropTarget=0;pointerEvents=0;fillColor=none;top=0;left=0;bottom=0;right=0;points=[[0,0.5],[1,0.5]];portConstraint=eastwest;" vertex="1" parent="G_TEXTWYbM2PwAT1ihFF-75">
          <mxGeometry y="50" width="40" height="25" as="geometry" />
        </mxCell>
        <mxCell id="G_TEXTWYbM2PwAT1ihFF-81" value="3" style="shape=partialRectangle;html=1;whiteSpace=wrap;connectable=0;fillColor=none;top=0;left=0;bottom=0;right=0;overflow=hidden;" vertex="1" parent="G_TEXTWYbM2PwAT1ihFF-80">
          <mxGeometry width="40" height="25" as="geometry" />
        </mxCell>
        <mxCell id="G_TEXTWYbM2PwAT1ihFF-82" style="shape=partialRectangle;html=1;whiteSpace=wrap;collapsible=0;dropTarget=0;pointerEvents=0;fillColor=none;top=0;left=0;bottom=0;right=0;points=[[0,0.5],[1,0.5]];portConstraint=eastwest;" vertex="1" parent="G_TEXTWYbM2PwAT1ihFF-75">
          <mxGeometry y="75" width="40" height="25" as="geometry" />
        </mxCell>
        <mxCell id="G_TEXTWYbM2PwAT1ihFF-83" value="4" style="shape=partialRectangle;html=1;whiteSpace=wrap;connectable=0;fillColor=none;top=0;left=0;bottom=0;right=0;overflow=hidden;" vertex="1" parent="G_TEXTWYbM2PwAT1ihFF-82">
          <mxGeometry width="40" height="25" as="geometry" />
        </mxCell>
        <mxCell id="G_TEXTWYbM2PwAT1ihFF-84" style="shape=partialRectangle;html=1;whiteSpace=wrap;collapsible=0;dropTarget=0;pointerEvents=0;fillColor=none;top=0;left=0;bottom=0;right=0;points=[[0,0.5],[1,0.5]];portConstraint=eastwest;" vertex="1" parent="G_TEXTWYbM2PwAT1ihFF-75">
          <mxGeometry y="100" width="40" height="25" as="geometry" />
        </mxCell>
        <mxCell id="G_TEXTWYbM2PwAT1ihFF-85" value="5" style="shape=partialRectangle;html=1;whiteSpace=wrap;connectable=0;fillColor=none;top=0;left=0;bottom=0;right=0;overflow=hidden;" vertex="1" parent="G_TEXTWYbM2PwAT1ihFF-84">
          <mxGeometry width="40" height="25" as="geometry" />
        </mxCell>
        <mxCell id="G_TEXTWYbM2PwAT1ihFF-86" style="shape=partialRectangle;html=1;whiteSpace=wrap;collapsible=0;dropTarget=0;pointerEvents=0;fillColor=none;top=0;left=0;bottom=0;right=0;points=[[0,0.5],[1,0.5]];portConstraint=eastwest;" vertex="1" parent="G_TEXTWYbM2PwAT1ihFF-75">
          <mxGeometry y="125" width="40" height="25" as="geometry" />
        </mxCell>
        <mxCell id="G_TEXTWYbM2PwAT1ihFF-87" value="..." style="shape=partialRectangle;html=1;whiteSpace=wrap;connectable=0;fillColor=none;top=0;left=0;bottom=0;right=0;overflow=hidden;" vertex="1" parent="G_TEXTWYbM2PwAT1ihFF-86">
          <mxGeometry width="40" height="25" as="geometry" />
        </mxCell>
        <mxCell id="G_TEXTWYbM2PwAT1ihFF-88" value="head" style="text;html=1;strokeColor=none;fillColor=none;align=center;verticalAlign=middle;whiteSpace=wrap;rounded=0;" vertex="1" parent="1">
          <mxGeometry x="278" y="518" width="40" height="20" as="geometry" />
        </mxCell>
        <mxCell id="G_TEXTWYbM2PwAT1ihFF-89" style="edgeStyle=orthogonalEdgeStyle;rounded=0;orthogonalLoop=1;jettySize=auto;html=1;exitX=1;exitY=0.5;exitDx=0;exitDy=0;" edge="1" parent="1" source="G_TEXTWYbM2PwAT1ihFF-76" target="G_TEXTWYbM2PwAT1ihFF-91">
          <mxGeometry relative="1" as="geometry">
            <mxPoint x="347.1428571428571" y="556.4285714285714" as="targetPoint" />
          </mxGeometry>
        </mxCell>
        <mxCell id="G_TEXTWYbM2PwAT1ihFF-90" style="edgeStyle=orthogonalEdgeStyle;rounded=0;orthogonalLoop=1;jettySize=auto;html=1;exitX=1;exitY=0.5;exitDx=0;exitDy=0;" edge="1" parent="1" source="G_TEXTWYbM2PwAT1ihFF-91">
          <mxGeometry relative="1" as="geometry">
            <mxPoint x="421" y="555" as="targetPoint" />
          </mxGeometry>
        </mxCell>
        <mxCell id="G_TEXTWYbM2PwAT1ihFF-91" value="2" style="rounded=0;whiteSpace=wrap;html=1;" vertex="1" parent="1">
          <mxGeometry x="354" y="545.5" width="30" height="20" as="geometry" />
        </mxCell>
        <mxCell id="G_TEXTWYbM2PwAT1ihFF-92" style="edgeStyle=orthogonalEdgeStyle;rounded=0;orthogonalLoop=1;jettySize=auto;html=1;exitX=1;exitY=0.5;exitDx=0;exitDy=0;" edge="1" parent="1" source="G_TEXTWYbM2PwAT1ihFF-78" target="G_TEXTWYbM2PwAT1ihFF-94">
          <mxGeometry relative="1" as="geometry">
            <mxPoint x="352.8571428571429" y="580.4285714285714" as="targetPoint" />
          </mxGeometry>
        </mxCell>
        <mxCell id="G_TEXTWYbM2PwAT1ihFF-93" style="edgeStyle=orthogonalEdgeStyle;rounded=0;orthogonalLoop=1;jettySize=auto;html=1;" edge="1" parent="1" source="G_TEXTWYbM2PwAT1ihFF-94" target="G_TEXTWYbM2PwAT1ihFF-95">
          <mxGeometry relative="1" as="geometry">
            <mxPoint x="425.42857142857133" y="580.5" as="targetPoint" />
          </mxGeometry>
        </mxCell>
        <mxCell id="G_TEXTWYbM2PwAT1ihFF-94" value="5" style="rounded=0;whiteSpace=wrap;html=1;" vertex="1" parent="1">
          <mxGeometry x="354" y="570.5" width="30" height="20" as="geometry" />
        </mxCell>
        <mxCell id="G_TEXTWYbM2PwAT1ihFF-95" value="3" style="rounded=0;whiteSpace=wrap;html=1;" vertex="1" parent="1">
          <mxGeometry x="420" y="570.5" width="30" height="20" as="geometry" />
        </mxCell>
        <mxCell id="G_TEXTWYbM2PwAT1ihFF-96" style="edgeStyle=orthogonalEdgeStyle;rounded=0;orthogonalLoop=1;jettySize=auto;html=1;" edge="1" parent="1" source="G_TEXTWYbM2PwAT1ihFF-80" target="G_TEXTWYbM2PwAT1ihFF-98">
          <mxGeometry relative="1" as="geometry">
            <mxPoint x="352.8571428571429" y="605.9285714285714" as="targetPoint" />
            <mxPoint x="318" y="606" as="sourcePoint" />
          </mxGeometry>
        </mxCell>
        <mxCell id="G_TEXTWYbM2PwAT1ihFF-97" style="edgeStyle=orthogonalEdgeStyle;rounded=0;orthogonalLoop=1;jettySize=auto;html=1;exitX=1;exitY=0.5;exitDx=0;exitDy=0;" edge="1" parent="1" source="G_TEXTWYbM2PwAT1ihFF-98">
          <mxGeometry relative="1" as="geometry">
            <mxPoint x="419.7142857142858" y="606.1428571428571" as="targetPoint" />
          </mxGeometry>
        </mxCell>
        <mxCell id="G_TEXTWYbM2PwAT1ihFF-98" value="5" style="rounded=0;whiteSpace=wrap;html=1;" vertex="1" parent="1">
          <mxGeometry x="354" y="596" width="30" height="20" as="geometry" />
        </mxCell>
        <mxCell id="G_TEXTWYbM2PwAT1ihFF-99" style="edgeStyle=orthogonalEdgeStyle;rounded=0;orthogonalLoop=1;jettySize=auto;html=1;exitX=1;exitY=0.5;exitDx=0;exitDy=0;" edge="1" parent="1" source="G_TEXTWYbM2PwAT1ihFF-82">
          <mxGeometry relative="1" as="geometry">
            <mxPoint x="353.42857142857133" y="630.7142857142857" as="targetPoint" />
          </mxGeometry>
        </mxCell>
        <mxCell id="G_TEXTWYbM2PwAT1ihFF-100" style="edgeStyle=orthogonalEdgeStyle;rounded=0;orthogonalLoop=1;jettySize=auto;html=1;" edge="1" parent="1" source="G_TEXTWYbM2PwAT1ihFF-84" target="G_TEXTWYbM2PwAT1ihFF-101">
          <mxGeometry relative="1" as="geometry">
            <mxPoint x="353.42857142857133" y="655.5" as="targetPoint" />
          </mxGeometry>
        </mxCell>
        <mxCell id="G_TEXTWYbM2PwAT1ihFF-101" value="1" style="rounded=0;whiteSpace=wrap;html=1;" vertex="1" parent="1">
          <mxGeometry x="354" y="645.5" width="30" height="20" as="geometry" />
        </mxCell>
        <mxCell id="G_TEXTWYbM2PwAT1ihFF-102" style="edgeStyle=orthogonalEdgeStyle;rounded=0;orthogonalLoop=1;jettySize=auto;html=1;" edge="1" parent="1" target="G_TEXTWYbM2PwAT1ihFF-103">
          <mxGeometry relative="1" as="geometry">
            <mxPoint x="425.42857142857133" y="655.5" as="targetPoint" />
            <mxPoint x="384" y="655.4857142857144" as="sourcePoint" />
          </mxGeometry>
        </mxCell>
        <mxCell id="G_TEXTWYbM2PwAT1ihFF-103" value="4" style="rounded=0;whiteSpace=wrap;html=1;" vertex="1" parent="1">
          <mxGeometry x="420" y="645.5" width="30" height="20" as="geometry" />
        </mxCell>
        <mxCell id="G_TEXTWYbM2PwAT1ihFF-104" value="" style="shape=table;html=1;whiteSpace=wrap;startSize=0;container=1;collapsible=0;childLayout=tableLayout;" vertex="1" parent="1">
          <mxGeometry x="552" y="543.5" width="40" height="150" as="geometry" />
        </mxCell>
        <mxCell id="G_TEXTWYbM2PwAT1ihFF-105" value="" style="shape=partialRectangle;html=1;whiteSpace=wrap;collapsible=0;dropTarget=0;pointerEvents=0;fillColor=none;top=0;left=0;bottom=0;right=0;points=[[0,0.5],[1,0.5]];portConstraint=eastwest;" vertex="1" parent="G_TEXTWYbM2PwAT1ihFF-104">
          <mxGeometry width="40" height="25" as="geometry" />
        </mxCell>
        <mxCell id="G_TEXTWYbM2PwAT1ihFF-106" value="1" style="shape=partialRectangle;html=1;whiteSpace=wrap;connectable=0;fillColor=none;top=0;left=0;bottom=0;right=0;overflow=hidden;" vertex="1" parent="G_TEXTWYbM2PwAT1ihFF-105">
          <mxGeometry width="40" height="25" as="geometry" />
        </mxCell>
        <mxCell id="G_TEXTWYbM2PwAT1ihFF-107" value="" style="shape=partialRectangle;html=1;whiteSpace=wrap;collapsible=0;dropTarget=0;pointerEvents=0;fillColor=none;top=0;left=0;bottom=0;right=0;points=[[0,0.5],[1,0.5]];portConstraint=eastwest;" vertex="1" parent="G_TEXTWYbM2PwAT1ihFF-104">
          <mxGeometry y="25" width="40" height="25" as="geometry" />
        </mxCell>
        <mxCell id="G_TEXTWYbM2PwAT1ihFF-108" value="2" style="shape=partialRectangle;html=1;whiteSpace=wrap;connectable=0;fillColor=none;top=0;left=0;bottom=0;right=0;overflow=hidden;" vertex="1" parent="G_TEXTWYbM2PwAT1ihFF-107">
          <mxGeometry width="40" height="25" as="geometry" />
        </mxCell>
        <mxCell id="G_TEXTWYbM2PwAT1ihFF-109" value="" style="shape=partialRectangle;html=1;whiteSpace=wrap;collapsible=0;dropTarget=0;pointerEvents=0;fillColor=none;top=0;left=0;bottom=0;right=0;points=[[0,0.5],[1,0.5]];portConstraint=eastwest;" vertex="1" parent="G_TEXTWYbM2PwAT1ihFF-104">
          <mxGeometry y="50" width="40" height="25" as="geometry" />
        </mxCell>
        <mxCell id="G_TEXTWYbM2PwAT1ihFF-110" value="3" style="shape=partialRectangle;html=1;whiteSpace=wrap;connectable=0;fillColor=none;top=0;left=0;bottom=0;right=0;overflow=hidden;" vertex="1" parent="G_TEXTWYbM2PwAT1ihFF-109">
          <mxGeometry width="40" height="25" as="geometry" />
        </mxCell>
        <mxCell id="G_TEXTWYbM2PwAT1ihFF-111" style="shape=partialRectangle;html=1;whiteSpace=wrap;collapsible=0;dropTarget=0;pointerEvents=0;fillColor=none;top=0;left=0;bottom=0;right=0;points=[[0,0.5],[1,0.5]];portConstraint=eastwest;" vertex="1" parent="G_TEXTWYbM2PwAT1ihFF-104">
          <mxGeometry y="75" width="40" height="25" as="geometry" />
        </mxCell>
        <mxCell id="G_TEXTWYbM2PwAT1ihFF-112" value="4" style="shape=partialRectangle;html=1;whiteSpace=wrap;connectable=0;fillColor=none;top=0;left=0;bottom=0;right=0;overflow=hidden;" vertex="1" parent="G_TEXTWYbM2PwAT1ihFF-111">
          <mxGeometry width="40" height="25" as="geometry" />
        </mxCell>
        <mxCell id="G_TEXTWYbM2PwAT1ihFF-113" style="shape=partialRectangle;html=1;whiteSpace=wrap;collapsible=0;dropTarget=0;pointerEvents=0;fillColor=none;top=0;left=0;bottom=0;right=0;points=[[0,0.5],[1,0.5]];portConstraint=eastwest;" vertex="1" parent="G_TEXTWYbM2PwAT1ihFF-104">
          <mxGeometry y="100" width="40" height="25" as="geometry" />
        </mxCell>
        <mxCell id="G_TEXTWYbM2PwAT1ihFF-114" value="5" style="shape=partialRectangle;html=1;whiteSpace=wrap;connectable=0;fillColor=none;top=0;left=0;bottom=0;right=0;overflow=hidden;" vertex="1" parent="G_TEXTWYbM2PwAT1ihFF-113">
          <mxGeometry width="40" height="25" as="geometry" />
        </mxCell>
        <mxCell id="G_TEXTWYbM2PwAT1ihFF-115" style="shape=partialRectangle;html=1;whiteSpace=wrap;collapsible=0;dropTarget=0;pointerEvents=0;fillColor=none;top=0;left=0;bottom=0;right=0;points=[[0,0.5],[1,0.5]];portConstraint=eastwest;" vertex="1" parent="G_TEXTWYbM2PwAT1ihFF-104">
          <mxGeometry y="125" width="40" height="25" as="geometry" />
        </mxCell>
        <mxCell id="G_TEXTWYbM2PwAT1ihFF-116" value="..." style="shape=partialRectangle;html=1;whiteSpace=wrap;connectable=0;fillColor=none;top=0;left=0;bottom=0;right=0;overflow=hidden;" vertex="1" parent="G_TEXTWYbM2PwAT1ihFF-115">
          <mxGeometry width="40" height="25" as="geometry" />
        </mxCell>
        <mxCell id="G_TEXTWYbM2PwAT1ihFF-117" value="head" style="text;html=1;strokeColor=none;fillColor=none;align=center;verticalAlign=middle;whiteSpace=wrap;rounded=0;" vertex="1" parent="1">
          <mxGeometry x="552" y="518.5" width="40" height="20" as="geometry" />
        </mxCell>
        <mxCell id="G_TEXTWYbM2PwAT1ihFF-118" style="edgeStyle=orthogonalEdgeStyle;rounded=0;orthogonalLoop=1;jettySize=auto;html=1;exitX=1;exitY=0.5;exitDx=0;exitDy=0;" edge="1" parent="1" source="G_TEXTWYbM2PwAT1ihFF-105" target="G_TEXTWYbM2PwAT1ihFF-120">
          <mxGeometry relative="1" as="geometry">
            <mxPoint x="621.1428571428571" y="556.9285714285714" as="targetPoint" />
          </mxGeometry>
        </mxCell>
        <mxCell id="G_TEXTWYbM2PwAT1ihFF-119" style="edgeStyle=orthogonalEdgeStyle;rounded=0;orthogonalLoop=1;jettySize=auto;html=1;exitX=1;exitY=0.5;exitDx=0;exitDy=0;" edge="1" parent="1" source="G_TEXTWYbM2PwAT1ihFF-120">
          <mxGeometry relative="1" as="geometry">
            <mxPoint x="823" y="555" as="targetPoint" />
          </mxGeometry>
        </mxCell>
        <mxCell id="G_TEXTWYbM2PwAT1ihFF-120" value="ver[1]=2" style="rounded=0;whiteSpace=wrap;html=1;" vertex="1" parent="1">
          <mxGeometry x="677" y="545.5" width="60" height="20" as="geometry" />
        </mxCell>
        <mxCell id="G_TEXTWYbM2PwAT1ihFF-121" style="edgeStyle=orthogonalEdgeStyle;rounded=0;orthogonalLoop=1;jettySize=auto;html=1;exitX=1;exitY=0.5;exitDx=0;exitDy=0;" edge="1" parent="1" source="G_TEXTWYbM2PwAT1ihFF-107" target="G_TEXTWYbM2PwAT1ihFF-123">
          <mxGeometry relative="1" as="geometry">
            <mxPoint x="626.8571428571429" y="580.9285714285714" as="targetPoint" />
          </mxGeometry>
        </mxCell>
        <mxCell id="G_TEXTWYbM2PwAT1ihFF-122" style="edgeStyle=orthogonalEdgeStyle;rounded=0;orthogonalLoop=1;jettySize=auto;html=1;" edge="1" parent="1" source="G_TEXTWYbM2PwAT1ihFF-123" target="G_TEXTWYbM2PwAT1ihFF-124">
          <mxGeometry relative="1" as="geometry">
            <mxPoint x="748.4285714285713" y="580.5" as="targetPoint" />
          </mxGeometry>
        </mxCell>
        <mxCell id="G_TEXTWYbM2PwAT1ihFF-123" value="ver[3]=5" style="rounded=0;whiteSpace=wrap;html=1;" vertex="1" parent="1">
          <mxGeometry x="677" y="570.5" width="60" height="20" as="geometry" />
        </mxCell>
        <mxCell id="G_TEXTWYbM2PwAT1ihFF-142" style="edgeStyle=orthogonalEdgeStyle;rounded=0;orthogonalLoop=1;jettySize=auto;html=1;exitX=1;exitY=0.5;exitDx=0;exitDy=0;fontSize=14;" edge="1" parent="1" source="G_TEXTWYbM2PwAT1ihFF-124">
          <mxGeometry relative="1" as="geometry">
            <mxPoint x="965.8620689655172" y="580.2413793103449" as="targetPoint" />
          </mxGeometry>
        </mxCell>
        <mxCell id="G_TEXTWYbM2PwAT1ihFF-124" value="3" style="rounded=0;whiteSpace=wrap;html=1;" vertex="1" parent="1">
          <mxGeometry x="826" y="570.5" width="60" height="20" as="geometry" />
        </mxCell>
        <mxCell id="G_TEXTWYbM2PwAT1ihFF-125" style="edgeStyle=orthogonalEdgeStyle;rounded=0;orthogonalLoop=1;jettySize=auto;html=1;" edge="1" parent="1" source="G_TEXTWYbM2PwAT1ihFF-109" target="G_TEXTWYbM2PwAT1ihFF-127">
          <mxGeometry relative="1" as="geometry">
            <mxPoint x="626.8571428571429" y="606.4285714285714" as="targetPoint" />
            <mxPoint x="592" y="606.5" as="sourcePoint" />
          </mxGeometry>
        </mxCell>
        <mxCell id="G_TEXTWYbM2PwAT1ihFF-126" style="edgeStyle=orthogonalEdgeStyle;rounded=0;orthogonalLoop=1;jettySize=auto;html=1;exitX=1;exitY=0.5;exitDx=0;exitDy=0;" edge="1" parent="1" source="G_TEXTWYbM2PwAT1ihFF-127">
          <mxGeometry relative="1" as="geometry">
            <mxPoint x="824" y="606" as="targetPoint" />
          </mxGeometry>
        </mxCell>
        <mxCell id="G_TEXTWYbM2PwAT1ihFF-127" value="ver[4]=5" style="rounded=0;whiteSpace=wrap;html=1;" vertex="1" parent="1">
          <mxGeometry x="677" y="596" width="60" height="20" as="geometry" />
        </mxCell>
        <mxCell id="G_TEXTWYbM2PwAT1ihFF-128" style="edgeStyle=orthogonalEdgeStyle;rounded=0;orthogonalLoop=1;jettySize=auto;html=1;exitX=1;exitY=0.5;exitDx=0;exitDy=0;" edge="1" parent="1" source="G_TEXTWYbM2PwAT1ihFF-111">
          <mxGeometry relative="1" as="geometry">
            <mxPoint x="676" y="631" as="targetPoint" />
          </mxGeometry>
        </mxCell>
        <mxCell id="G_TEXTWYbM2PwAT1ihFF-129" style="edgeStyle=orthogonalEdgeStyle;rounded=0;orthogonalLoop=1;jettySize=auto;html=1;" edge="1" parent="1" source="G_TEXTWYbM2PwAT1ihFF-113" target="G_TEXTWYbM2PwAT1ihFF-130">
          <mxGeometry relative="1" as="geometry">
            <mxPoint x="627.4285714285713" y="656" as="targetPoint" />
          </mxGeometry>
        </mxCell>
        <mxCell id="G_TEXTWYbM2PwAT1ihFF-130" value="ver[6]=1" style="rounded=0;whiteSpace=wrap;html=1;" vertex="1" parent="1">
          <mxGeometry x="677" y="645.5" width="60" height="20" as="geometry" />
        </mxCell>
        <mxCell id="G_TEXTWYbM2PwAT1ihFF-131" style="edgeStyle=orthogonalEdgeStyle;rounded=0;orthogonalLoop=1;jettySize=auto;html=1;" edge="1" parent="1" target="G_TEXTWYbM2PwAT1ihFF-132" source="G_TEXTWYbM2PwAT1ihFF-130">
          <mxGeometry relative="1" as="geometry">
            <mxPoint x="748.4285714285713" y="655.5" as="targetPoint" />
            <mxPoint x="738" y="655" as="sourcePoint" />
          </mxGeometry>
        </mxCell>
        <mxCell id="G_TEXTWYbM2PwAT1ihFF-143" style="edgeStyle=orthogonalEdgeStyle;rounded=0;orthogonalLoop=1;jettySize=auto;html=1;exitX=1;exitY=0.5;exitDx=0;exitDy=0;fontSize=14;" edge="1" parent="1" source="G_TEXTWYbM2PwAT1ihFF-132">
          <mxGeometry relative="1" as="geometry">
            <mxPoint x="965.8620689655172" y="655.4137931034484" as="targetPoint" />
          </mxGeometry>
        </mxCell>
        <mxCell id="G_TEXTWYbM2PwAT1ihFF-132" value="4" style="rounded=0;whiteSpace=wrap;html=1;" vertex="1" parent="1">
          <mxGeometry x="826" y="645.5" width="60" height="20" as="geometry" />
        </mxCell>
        <mxCell id="G_TEXTWYbM2PwAT1ihFF-133" value="&lt;font style=&quot;font-size: 11px&quot;&gt;head[1] = 1&lt;/font&gt;" style="text;html=1;strokeColor=none;fillColor=none;align=center;verticalAlign=middle;whiteSpace=wrap;rounded=0;fontSize=10;" vertex="1" parent="1">
          <mxGeometry x="596" y="538" width="79" height="16" as="geometry" />
        </mxCell>
        <mxCell id="G_TEXTWYbM2PwAT1ihFF-134" value="&lt;font style=&quot;font-size: 11px&quot;&gt;head[2] = 3&lt;/font&gt;" style="text;html=1;strokeColor=none;fillColor=none;align=center;verticalAlign=middle;whiteSpace=wrap;rounded=0;fontSize=10;" vertex="1" parent="1">
          <mxGeometry x="596" y="562" width="79" height="16" as="geometry" />
        </mxCell>
        <mxCell id="G_TEXTWYbM2PwAT1ihFF-135" value="&lt;font style=&quot;font-size: 11px&quot;&gt;head[3] = 4&lt;/font&gt;" style="text;html=1;strokeColor=none;fillColor=none;align=center;verticalAlign=middle;whiteSpace=wrap;rounded=0;fontSize=10;" vertex="1" parent="1">
          <mxGeometry x="596" y="586" width="79" height="16" as="geometry" />
        </mxCell>
        <mxCell id="G_TEXTWYbM2PwAT1ihFF-136" value="&lt;font style=&quot;font-size: 11px&quot;&gt;head[4] = 0&lt;/font&gt;" style="text;html=1;strokeColor=none;fillColor=none;align=center;verticalAlign=middle;whiteSpace=wrap;rounded=0;fontSize=10;" vertex="1" parent="1">
          <mxGeometry x="596" y="610.5" width="79" height="16" as="geometry" />
        </mxCell>
        <mxCell id="G_TEXTWYbM2PwAT1ihFF-137" value="&lt;font style=&quot;font-size: 11px&quot;&gt;head[5] = 6&lt;/font&gt;" style="text;html=1;strokeColor=none;fillColor=none;align=center;verticalAlign=middle;whiteSpace=wrap;rounded=0;fontSize=10;" vertex="1" parent="1">
          <mxGeometry x="596" y="638" width="79" height="16" as="geometry" />
        </mxCell>
        <mxCell id="G_TEXTWYbM2PwAT1ihFF-138" value="&lt;font style=&quot;font-size: 11px&quot;&gt;next[3]=2&lt;/font&gt;" style="text;html=1;strokeColor=none;fillColor=none;align=center;verticalAlign=middle;whiteSpace=wrap;rounded=0;fontSize=10;" vertex="1" parent="1">
          <mxGeometry x="739.5" y="562" width="79" height="16" as="geometry" />
        </mxCell>
        <mxCell id="G_TEXTWYbM2PwAT1ihFF-139" value="&lt;font style=&quot;font-size: 11px&quot;&gt;next[4]=0&lt;/font&gt;" style="text;html=1;strokeColor=none;fillColor=none;align=center;verticalAlign=middle;whiteSpace=wrap;rounded=0;fontSize=10;" vertex="1" parent="1">
          <mxGeometry x="739.5" y="586" width="79" height="16" as="geometry" />
        </mxCell>
        <mxCell id="G_TEXTWYbM2PwAT1ihFF-140" value="&lt;font style=&quot;font-size: 11px&quot;&gt;next[6]=5&lt;/font&gt;" style="text;html=1;strokeColor=none;fillColor=none;align=center;verticalAlign=middle;whiteSpace=wrap;rounded=0;fontSize=10;" vertex="1" parent="1">
          <mxGeometry x="739.5" y="638" width="79" height="16" as="geometry" />
        </mxCell>
        <mxCell id="G_TEXTWYbM2PwAT1ihFF-141" value="&lt;font style=&quot;font-size: 11px&quot;&gt;next[1]=0&lt;/font&gt;" style="text;html=1;strokeColor=none;fillColor=none;align=center;verticalAlign=middle;whiteSpace=wrap;rounded=0;fontSize=10;" vertex="1" parent="1">
          <mxGeometry x="739.5" y="535" width="79" height="16" as="geometry" />
        </mxCell>
        <mxCell id="G_TEXTWYbM2PwAT1ihFF-144" value="&lt;font style=&quot;font-size: 11px&quot;&gt;next[5]=0&lt;/font&gt;" style="text;html=1;strokeColor=none;fillColor=none;align=center;verticalAlign=middle;whiteSpace=wrap;rounded=0;fontSize=10;" vertex="1" parent="1">
          <mxGeometry x="886" y="635" width="79" height="16" as="geometry" />
        </mxCell>
        <mxCell id="G_TEXTWYbM2PwAT1ihFF-145" value="&lt;font style=&quot;font-size: 11px&quot;&gt;next[2]=0&lt;/font&gt;" style="text;html=1;strokeColor=none;fillColor=none;align=center;verticalAlign=middle;whiteSpace=wrap;rounded=0;fontSize=10;" vertex="1" parent="1">
          <mxGeometry x="886" y="559" width="79" height="16" as="geometry" />
        </mxCell>
      </root>
    </mxGraphModel>
  </diagram>
</mxfile>
